Plot: The mentally troubled son of a shogun falls for a girl who's been raised in the mountains.

Subtitle: ENGLISH

IMDB: http://www.imdb.com/title/tt1572189/


General
UniqueID                         : 219494083442025173236660424974646053961 (0xA52105D5ACFBC07E918478A5B9E30C49)
Complete name                    : Raiou.2010.JAP.DVDRip.x264.AC3-zdzdz
Format                           : Matroska
File size                        : 1.46 GiB
Duration                         : 2h 12mn
Overall bit rate                 : 1 576 Kbps
Encoded date                     : UTC 2011-05-06 19:33:07
Writing application              : mkvmerge v4.7.0 ('Just Like You Imagined') built on Apr 21 2011 01:13:14
Writing library                  : libebml v1.2.0 + libmatroska v1.1.0

Video
ID                               : 1
Format                           : AVC
Format/Info                      : Advanced Video Codec
Format profile                   : High@L5.1
Format settings, CABAC           : Yes
Format settings, ReFrames        : 8 frames
Muxing mode                      : Header stripping
Codec ID                         : V_MPEG4/ISO/AVC
Duration                         : 2h 12mn
Bit rate                         : 1 161 Kbps
Width                            : 720 pixels
Height                           : 384 pixels
Display aspect ratio             : 1.875
Frame rate                       : 23.976 fps
Color space                      : YUV
Chroma subsampling               : 4:2:0
Bit depth                        : 8 bits
Scan type                        : Progressive
Bits/(Pixel*Frame)               : 0.175
Stream size                      : 1.08 GiB (74%)
Title                            : Encoded by zdzdz
Language                         : Japanese

Audio
ID                               : 2
Format                           : AC-3
Format/Info                      : Audio Coding 3
Mode extension                   : CM (complete main)
Muxing mode                      : Header stripping
Codec ID                         : A_AC3
Duration                         : 2h 12mn
Bit rate mode                    : Constant
Bit rate                         : 384 Kbps
Channel(s)                       : 6 channels
Channel positions                : Front: L C R, Side: L R, LFE
Sampling rate                    : 48.0 KHz
Bit depth                        : 16 bits
Compression mode                 : Lossy
Stream size                      : 365 MiB (24%)
Title                            : AC3 6ch
Language                         : Japanese

Text #1
ID                               : 3
Format                           : VobSub
Muxing mode                      : zlib
Codec ID                         : S_VOBSUB
Codec ID/Info                    : The same subtitle format used on DVDs
Title                            : VobSub
Language                         : Japanese

Text #2
ID                               : 4
Format                           : VobSub
Muxing mode                      : zlib
Codec ID                         : S_VOBSUB
Codec ID/Info                    : The same subtitle format used on DVDs
Title                            : Vobsub
Language                         : Japanese
